<mxfile host="app.diagrams.net" modified="2023-02-24T10:44:03.352Z" agent="5.0 (Windows NT 10.0; Win64; x64) AppleWebKit/537.36 (KHTML, like Gecko) Chrome/110.0.0.0 Safari/537.36 Edg/110.0.1587.50" etag="jF2kUiipKs_I94dvdI1C" version="20.8.23" type="github">
  <diagram name="Page-1" id="bpwANrh1sky16FrDoTz7">
    <mxGraphModel dx="1434" dy="796" grid="1" gridSize="10" guides="1" tooltips="1" connect="1" arrows="1" fold="1" page="1" pageScale="1" pageWidth="827" pageHeight="1169" math="0" shadow="0">
      <root>
        <mxCell id="0" />
        <mxCell id="1" parent="0" />
        <mxCell id="0NdcQGRxZHLI2dxN-vid-1" value="" style="rounded=0;whiteSpace=wrap;html=1;dashed=1;" vertex="1" parent="1">
          <mxGeometry x="240" y="120" width="280" height="360" as="geometry" />
        </mxCell>
        <mxCell id="0NdcQGRxZHLI2dxN-vid-4" value="" style="aspect=fixed;html=1;points=[];align=center;image;fontSize=12;image=img/lib/azure2/general/Resource_Groups.svg;dashed=1;" vertex="1" parent="1">
          <mxGeometry x="250" y="410" width="68" height="64" as="geometry" />
        </mxCell>
        <mxCell id="0NdcQGRxZHLI2dxN-vid-5" value="" style="aspect=fixed;html=1;points=[];align=center;image;fontSize=12;image=img/lib/azure2/app_services/App_Services.svg;dashed=1;" vertex="1" parent="1">
          <mxGeometry x="350" y="220" width="64" height="64" as="geometry" />
        </mxCell>
        <mxCell id="0NdcQGRxZHLI2dxN-vid-6" value="" style="shape=image;verticalLabelPosition=bottom;verticalAlign=top;imageAspect=0;aspect=fixed;image=data:image/png,iVBORw0KGgoAAAANSUhEUgAAAN4AAADjCAMAAADdXVr2AAAAkFBMVEUAAAD////+/v7t7e3s7Oz39/f6+vry8vL09PT9/f3v7+/19fXp6enm5ubX19dKSkpERES2trakpKTh4eHW1tapqand3d2enp6wsLDPz899fX24uLiRkZFoaGjBwcGFhYV1dXUNDQ05OTmWlpZZWVleXl4cHBxtbW0mJiYxMTGLi4s+Pj5JSUlSUlIoKCgTExOUPJKKAAAgAElEQVR4nO1dCZujKLcWDYKYVGVPTCpL7ZVUp+r//7sLaDgHBDVWz0z391yenm4Hl/AqZ+FsRLFshCWy5UQeZgN5NMhUZ646meokujOVh4SqTqE7ect5oTqp6kzV+UR3tp3XI6EwkthcmsClA/h9rg5j36D1AyIDb8AdeHzgDF8PbwDwWs6Xw1fPR2MKnwd4A/Si49h6E/hR3kHng38TXpIS1Xie01wfkZzSnJadTAiRkr8VHmM8Z2JWTFbn3evLZfzr17hs9y+74+ZhOt3u57NMAc3EPwZPv0g2kI3rX1JHA/2jXB0xfV536g9B1ZEgXc7fTQ6Xx6itPb0e1sWSyhehbxLq/hxGEkOv/uap7nUGHcOgc/h99YCIqUZT2ag64uoo5XYng85cH7Lgedkpf4YVq9dWYFZ7XS1TibE2EgbPd3tDv389ry6NEmB68mMOKrIZWEytmgyDajKQcjL4zitamy1uhFa1t8NeyI/hjESPLyPVvBvUOHV40Kq3gudlai1z3WWKTPB8tN189cJWITwWqZ7hNn9yyYqYQcfhQSe/E54ii/nz5QfQrm03YfJN/TZ4Pq7QQsol1Vvn4+Lw9huwlW28mlGBRoK4RgMrcweteqOcy0Z1U0e5PnI60SGtn89Tstz8NmhVe9lnWap+qcv4TGduxpeXvb9DMBS/Y07W2sfziIt+goGBYPihWKdk/9k+1Lfxye74PPkvtNtmWaqU/5XWwuj2qXWQL9tEzpNBcW963tU02O86AHwfaknxU3iDADyvnLnCE3TfDu6BES2HBD2avkI9idDRQweAx6GanF54vkGDcCzhZapxqdyKXB2l6kik6jBXR1yfh06qD2N5JJnlfdvYvqZyTNVDEbwhKR9KxfSjHeBGEKYfAOODQbvj04Nm8fXSqBOPrfOfhM9bJ9dpb5E6XE9AnaTrDlR4SB110hl0EhYMvcR6wkfH1kGtS/ZqCNjA+yCIAhhff7cDXGt4/5LWQthz64COJVPwwbsnFoEzcW7HdyrK8f3z8AjZt77vxz1NXPZr4L3Y8KQePho793sEx+syF7fDu532hu1S/HXIKtriHtp7RbR3Pe9MhxOd1AFuZvxm2nM4ZwacCThnDJwppas6mhfn/6eKXZZPAnYHnHOXwi9dz1NnRkhiW9e56oFkLZyTOpzzRrnHap/uY0uWdk9B7clSrr9yA+/oO89GtpihMWPTGr5Pxm6TezdpLWTu/t6XZP7kF+55mjGvJSwAz5wXxNLLJYEK7mFhBf+nlDJCaq9zJUdK1rjnIoTf0AfwDl54ifP4hcQheFrTbBb0nzElZeTo/NJmyOR5gbvemQjwJ27uPpc2waTOvyb4UXdCdzJ3sXXIb1gxdF7vZQNnaXCZEXVphqlxQ3yLRP1Q8m4+eeY7r1aO8RY966lc79H4zqH314y2DDq/9nZfrTv8o1RKSMrx7NlQZMNzp4ARDFOPYKimCN+jpx2rkdTY6njEOgz6BqWMkK31A3KlwjTZxHg8G1pzVPjE+toV68hRQPDz1qSytRBiKzaPksH8Tq3FffyeCs0VSI7ftuz8KbzUor+ZMQSSO9sCN6G3wGs2GQpiWy7lpyvPE3zihVf2c+IXngbetoQX+4UrQXrDW2zsnCR+x0OIHvJOds4OVmo6tFetW3I9j1n5J+W2lVgf5eahwFq2sXM+t27C8m+XwaVkYY3iNc1CVmoKVuoOgmFkeQpOS341JYkCuh9HWTOpg2DY8pBg0DclOWLRE/yopT2QmWj3MbSKdTKzXtqOXcU2Txiih0K0+PdArO+5X6xfRyIEgiGQrYVQa2XxvWQ/11psgfCQGwMyzxG/WfA292V3eIMU/eYLNiURYhHg41L8EB610W1JYoZP0dQ80lbvbG5G1govx+xlS7D2bbPwtxltgddMe8zWoeeYtlJYkX2IpFXMcgOvYI20p/17SFGh+FFZbmm4H6JFKXNWhs7IRjY6hkgZqysj845czyPSSowMWYa1lutIBCL4XW5zDWs+PcnP1teURBLrTS0ZmsEC/coDnldBsW7gzZrEejUSjkTOXljzzubkL1z01VpSrCmcBgITaA5L9Cd2G7xR3A4vobCIPNnw5C9hZ5Qk+57w8Pr5Kc0x/2FIdyrEPwAPz45nYnMNMsN2imfay5RkrZ7HmcV/EiSarPVXF9obxK20p6gIcc/ckdhihr9fpSZ4ac8bFaB1ILx2HjNuaW7IsvWW1Vz5Xv9+anTOWYf4A6WvAWlsUkffy6z5Oct98QXq0si2yly1YUnASKpFT5LuLL0bLRQK0s2Vnxt4S+ZVgWEkpV4u0NroTjiXWjaCj6FI6vEFTWKdDNHtJVfBBHow57RWMQgTMIh1w4uu8BrEuh4JheXIK3XNypbMuuS3aS0kQ8T7kQp7+Ay9ulFneIZRdYWHuUshalZzPL3O9DatBWkNj6JG9UdzcuPjCj6tJeFmHbBkXlZQ5085MLdxXrs0xQaELfNrLVdX+9XrLo/y3NLslpnuhPNYDx2k15vw/eVD7c7M6HAj6jvvuYmiWbJNa5dmeAE4o+Z8ZVpSh35TEjYI7FnNvwc0cSaBF+9h/Ga6dxMMeiQgHL7KXvtSYAHRuLNSRgYI3Sp3rcJ40nPXg9Qg1s1NncR6OZIUDSSDR1WDtjTvc9pNayEELRqPNKnBg5XChnSGRwDesoPOeeVPWG8XLjx5JVI/96zVlKThoUeeyidh4YhNHiOvyPL6YQgzdxVNpiQHHmL/F2ouhUHjBdtI1OG5UQGZteC4ix2HU46GKec7duUzJ/5Au85yIaS+oQgChPRCmaLgfMiLpT95hpbnU6mH8BgccgooJr+X1IovYPKoLhgY8hs+pWVccCUM9aVouh/TvAwmZpzzkuhjdVjeRDmTwkqqSYPlfrs4w2O/H4pZkqdD9dTyoUJpUvpIwVVB4VlKZ8u7Yl/gAIXtSLCRvE2zsliMZst5gd2Nk3ZTkmVUj+4f9vOZyEeDwVB++lkxOVtO09P96/txczhsVDucD/LoeDy+71Rw8f348/TWHI37+P329fV1ku1Jtk/53+n09fXRcpe68dF/iWjTWmquhL+qvbbCcx3Jf1fbp81KWdH+iD+5fVCH9mx+lf8kVPhPaFNic05L7vG6s/5va2rVF9BahGi//U9v5zA83h5L9ec3icofKp4M22/+c9r319PT+HK5v//1ecKGs6O1YkBedyvy6et4eHheTafr9WSynk5Xzw+Ho+Xm+xi/7N7fN+ezvOzh+Xm1mi4Wi/ViqtpaHi5WK3nTs7zvcNxdsOXnc3yvms4n+qWOyuSicCcySH4fHxb7u6HgVGW7xGWoNaE4fGJOr+s9ziOdgqAFA83gksc7+Q4Yr9RFonQmpXRh6wDR8Q1GKWPVEpkZ/Yqrm8rflwvUASwS5+VNeulaDi83h6k6qm6C80dz71CpesKRZvFAUNAVLznToBylLEVLgSHxRSWhRc2ReM432VqQsjfvaGu5LivwCnMgags0falAS4tt7tFaEgoTaE9iLzzwzsxuhgcz/3Z4MLQ188PDMu2UIq3lulRj8PFeTaSp49U3xDcmDaHkXjsnA9X+zmvnTFw7ZwmvtL+bT/+EltdX42y5EkYrnT3YOY1tGLnrZpnt9a8Myhl4pRbEc745/gDeXkcrNXSmORD9PGf+hDsKhrMxMVZqY8CBde8hYKNDH0B57RtteHVTEZinRHdTUunjlEtNM2/OnktL/x4FhXIuXFMSClTngWBjsDP/ohbZdLK1wMtlnU1JkL9nKPeJxIFgYw7zY8MdrQXZGDbBtAhzyYrfDg+MEcw93wHenblbMXUvPIHMJEI48GDijQLwcmDPhfDB7wqP94AHImkfhIdkj2Kwln/PTNwXErCPg8PtTUUK3Ep7AC+9gfZM/p6hnU2I9gRyyL/kFe2VI0POpq0I/DLElLyTziMz70CAzBwirhGKjLi+I1L1Als75eEEN8w/sNYCQSePctr6g42Jka0L4jvfLNaRt1r0qDqA4rtGIhRsjLSbNUFaC4e1woF77Od6zHDN3c/g+UPJW+ABXyvC8MCPccHw6BrdHIJn5u8j/xk82gMecg9OWTBUHK15EgKmpNSo8ydWTeMabUHQ/QvtQ3sWvM60Z5JLmfHJHXk4VBwU6wWqOgAS44H4QiN1KIF5BSsS1qec+APQ3JBYJ954T9TpqzoAnPeJhPW51PhI71NTdUDAT8992m45GYxhuHKBNHj9fS4U8xuPBOZdu15eyT0cK5CGVXikN47YVaxD0MIXDtazxDbh5kZeSuC+StmbC7+DWI9tB5pfrKsjpPXzCh4ykFkJIjY8w3S/rzUjesL76AUvBlfluiHBjZjZ+UorUxKS6UXYq28U1p2v6oBHa3H4k2Etp4BzullrIeB2PDZcmsHsVE+N8jxPDVP6zsCBn9uu+tgYax5i3/nqLurefz3KjOx5Ir7ztZvQSJwHfBAUYOBcmoLuvU+rqgPG2XwI5xBxc9FadCtHY08BMAZ85n0EA45LvwsKBgnc6FYHrpUyFEFV1MjCMDXgLIXoUwoKkvHGvcR6gtY7k5BYl1i4mWVfTGstSJcnQXgoQmjYD54hip7wBsA6zw3wkJC7ExqecU9vSDD7EtjP2zU8tM3r72RXGnj3eVOdskEYnjEW7BxTklVcDRSXKVNVB4D0ChKsOgB2thda5aY2eP3rubEiNzrdhfrO4/gDt7PsjQ0HvCcNVQcg12FHRTRAcIdJOMHNPPvsLUfjEQwO4zdf7+UWwZAA10hhOc3tS+1QcfMeP5QpCTiSChwJ5a3DzFhfZ/CNYt386mtPsY5C5JJrAKYnAwwt+kYSHhDFA2+AZ6ygxX8Fj4KpctYEj5rL9hIeSl1i4fw9cK/M/jN4QEVFA7wY9LIViQa5IcVlKKtXJeiaR9OetPeA4fWhPQrh6XvRQHsQ4r4hUZyam1JTK6BWdYAhuVDVa2ninBAZBZzTiJ8X6jtfPjT2cs6qF1j8njRUHQAmf5FKmVkunJTjJCD3mFH4xob/3Cb3QJt46Sn3KDFktCZBuYdF9JOEZ9SRlxDZKHiG/7zm/epzhuB111ooCKcpCWot2NX3LeEZdntsgMdBs+E94R1/Ds/MunMTPKQe8wjE7QG4Qm3FAO/+mXUtYGnzJw7lWnivFYO81FDIJrxiGODFzSjKzHd5SMNVB1DackZrVQW4/yZzqB6Kq9F4qxL4O3PUC3J9lzVVHYCfGkXwVlcs8OLVizWWgIJ0FQzOFDC/c+m5Ws+BZ/yijbPFyKBhlF8AXp3pGbFuROWdYa83inVjR7zvKdYRvI8msY5CAJYR+DQb4ZmiDbO+8IzSOu4ND7TJoWiCZ17DPOLfGF6ouiooLSPSVF21wc5p4D31snNaX09pZQ2hCuY1FBEM/EwDXn/GYqSFZzd5/cFKbYjgu2al9oYSoJFUtmsUHLCgDaEKUKZjH0EixHtYMKAM9XnORNmp9a+qgIAK8C4XZWUQu2Y1ZWC9pnr5u5AcIVI4n5b8Scu9kj+Van9lFik75aXqHSMP8v3198uwpXI2lINiHDLHJujrRUk1kqqGcgpB7SgZ6evwvN7Ol8vZaHkn23I4km0uW7FUbV7sZStk228nk/V6spVtouLMUIz5r+P5ebFdq8tmw2HC2Gg0HA6Vckm4mo25Uj9T+eTZbDCU/6hI+tV5g+Ogv4/yCcX8biSFQirZt7yM8mQ4KiarDfzSOsIhnMfVQo5JNjnC7WSxen5+OJ837x0KcP6m9vj4HQpy79XW0V8V5HhrW/yvw6tVHvtfapPorv2iv7f9P7y/uf3Pwxu1X/SHtu/Pi9q2QsWzyz/T1WIxXT2fj68XiIu3BMPn8bxaTNdK65jfLZeFVkD2k8WzVcFn/Hosg+RXqk21XqIC36cqZH690L06Hl4qBQ8Pz+rv8+GwOcCPfr0fzur+6WI90QpOof+ezWajUhWSqoxs8mA+l4rLbHmnx7FeoFy+3TCjXK5gK/1ONX2UKXeqUd4WEZRkOV6vrNyTSKdDxWHWaV5pamUMrPt4rSLrQ7V4vkbCc56CzrmvNkhRP1VtFqJa2Vma/JSFATplr74UjCgqZoyHbC3CENwiwimtQVMSBXXvTvQ0JQG84uZQ8at93SzeLqTBlASmskUEFvlZeMUAIUE6zLiHKSnhUF7mrmvVAdeUBFGZZ9JgSoJsmjWCl6QBrz824kQjepPX33SiOpfDzjc5h7FZC6yzht8HZ8Q24kZBHyRhUxKIjxHp6WOA+Z32NCUNoOybcjKEZ4thFfuIQq0DEba1wLJp+WNbS9TX1pIIE/Vw12hrKRA8qDPSAA/W9MV/CC8xM23UCM+QUhFBPFnhgXc1FUEk7h7ghUxJ/qoDBt5XoympCR7IaKv6T23Qxli/jKgxr6+58fq7bqgY0iTW5Nrp3UDAqToAXjKA90nadh1w4w+uvYamTrmwSyVYgwYH3wj5GJ7DgmEAsbDnvj4GyPHoF5UkLzVf796wMq+PwTDpZVcPEcTZ9/QQQQrLpbeHyLCMXbOHyEj/YQS5Q+NODrC+/r3cWOeUh6gfPBNUuOnm31MOMFA6s7p3tu6+tL2zfeDtesMzg1g1wgNXBI1QzMMwTHuQZPGR/9S/d+zt3zMsY9JEexCcd+GRoMAU+dWBX/PqI7VFBRiEvf5hzmlWVYeOnBNGUvVCfuyeidrWMybqAN7CQcW1mNd6CIftoKDIAekn947XB5z7yj1uhG8Z1xKQe+Csmyh4xtl3Hw66QoHa855hOwbeQ9+wHZDqo6aopBQNNUoYrAaGgUqeA/xKtj3hmSmz6gsPCIQlDfDAcktJhEvVFSIcEWhe/nPPFYOBN+0bEWi+w7gxItBwlidddSA1a4ZpFnDgc56akLBdZqq4dfD6m84U4KUNu+D54w90b2bGvSPhS3lmJNAx01UH3uG2YKg4hCWd6EAXM7tVMBh4C3aTYIivvTGKGm4QDBB5tmA6VBxSahtiqcE/y34YlbTok+CmCNyYM6ZwaT2WGgY6L2OpwQ62DMNDC9peoeKg1q37wUtA/9g3wAP96luIRJfEMJ/TMDVSE0kcGQICIXNBV34AnnW+seqAsOxfVXqkU3Wgii+AQJYdL6sOkOO15z6cewalbVeUe3PTmqsOpAbelt6wN25qeinERdBwQh0Fw6YKL1CZzyhzcBTeC8V89GM/wWBsiUVPwQBafcMmWSmQ3pKUVQdQVuw6nOBmXt6pXwaYBa+PWAedvCEDDLIB3soMMNnACL0LJ7jB1O8Hz+h+857wIHyqKcHN6KUbAw+EWhRSyuK4Vl/zxqoDBt5dv/REsDcXDemJKAGsTE9UcxeyprdB2oMS6mvSh/YMvGW/iEBUcSd8KYO6CgyqDoD75p2Hfhk4+65P5jMztxeiR9UBNPBH1rBJljHTH1HVAQr53sNQ3jpSy/IfifWiT9UBZMy40HDeOmgoe1RVnMOXX7AAPLSyGP378IQw5q8zD8ODuUlw0XSw3usKtD54CSwT9z/SOfvBg1XcNlh1ABVVqHL1qoofsFGJ3hfOu0EdhCyee9CeDa8z7V1NSWgnxaUI0h5SpwmqOkBRzN+B+KsOpJBB/CvtUXXAwJtlPaoOkOP19hMJ6nOgOH7QahepUoTgHQj02/KYiijW3ZpMSf5oXDD894nGReI6uEEC4g4PvNoDrJKQaP+idaCYEAe2tGU/MCWNeoh1iyUGiwlhF7lTKwlI9ztUCoobobLpUQrKvL9e8GDJzYPwwN6+yxO3gCWUb5wEvPrAHd7kt781jwF2eumjtcAqLngpEt57U6fs6nXPgLl8pH6vPAogmNOGAgPeThjgMr296gDYCrZp6FJY6T2Ra6+pbIy3Y5sGGD9IvufblTLIr75dMKAKa8Nk4C8FBQmC1bacdgFLVO3n0RgjnAqPZoK9eQtcNol1ZiZ/D7EOey591ncYqHa1Apn36C1gmUFI+HMAHryB4tYClswoFD3gAcc/cj88gQo8rqgLT0kPtI435UedApYwvXckLLK88QdAPXvhO9+YfXk0N58RvAGCR1FYH97zGXn90d4Up5T4cmNhSStXbTdVHWBI5NJqT3qtb2h4ZcidFhSlEqVGV+a/EOvjlaky5aU5hOzRFO1b8JyXv6937EZcAW9l+bavgvEgbYPyHNT26GlUbWBg9ioo94pybkpFNQbIILmw0VwFM+qoxirXQzXdqfI1hjPo1EcokeIgrr3y0tFopsIyt4sVukIyjsBeKPgLR2+782qxWOtKxapO8cPm3dqZO/oa37+8H/VOBc+qrHEV36laWd5YNR3ZuVivJ/9aNfaFXZcawRN/b2iuaW8kCC/hte2//7qm1qKhDeoS8dH+gD+6jUFN0LSns/pNvNTfvh9DVLBr1EHJOWNbhDi7O/9t7UiMMPZuFhLP2p/xBzdKjSrl36COr9of8se2SfsGdfzfy0b83e1S36Cu5vVP3en5+Pb29vHxpTYIevM88/H77U1fIf98fKkthT7H4/vLy+tOb1EkdYNJMRsV6Nbx5mE62eq0DKmBJJIV6F9W+bcqDHWodBGVmjp9OF7wL502q/V+KW8aKM1FpZ4WkwO+YEZxKIFe71WrdS33NDfFGbhy6TQbMloqdir4XAwLnME6HTG1NUKVtqFXrbrpIndlp9rKQK3fwEvzVKZ1lEpbLtEl3vzishOpmyfKrxkg6nxS6n8oFXXFB1cVvYLi38ENbSsxV7m6sABJcCUpZVRLk262FiRxdrfYWtAOzzoY2t7BDYc96KCqDhvUWdumfQ+Fu75CRrVl5w3qrJLzN8CDubIjgxo8a6fAmQjCc0yGaHr+4u76CtkkTmmTnfO6JlZyCM2yh+52TvyiR7S+/kRbAUZ76hhnNTyv1z9FJP2euV59tOHukbR4/a9W6AzgTbtXHUDbzx1JfcdeVGY72hDXtK6t1DXBoK06yGgt37ZjKsJWp6KjKQm5TbtHJeFtyZdJzfBI0f4uJ7xzacMGddW8wrrnyrWl5GARfOpoa0Ej7R62g8Z/yGtm5Qwvb5bilm11Y2tr1gV1hw9zfku6wQMq2naFh754NKxvq4s39Nrym3YNtjcFjabUGT6E0HwT0giP1ODtu1rKUNagcok4kRpIZEQPxikZVsoc+3mKl34L6tAWiMZVJ9pLcAW8cGwQHgkqJBqJmtEfo3vPkwFK08BKWXBkwlLOJjb/wbtpz0SXyAgIeOscGQF63NrhGtZm7NGnP90xtK1uNW8yq97C2p7BaNemHfVbYG2xDsJy1k2sg7e0rH+H5h32lkTR29AbjBPUWsyV6BOphEfLKozIfss6wIOv180BxhDvLn35Bh6x+J4JwLwZnjXBoxXF/AcV4PnuopTB1xt2gSeQ1ec9t7gGCstWrWA+Vpb4TEk1roD3xI7OFMn+JAHS2HWgPYiZGnShPbTneTRyJDbeilbvuJ2Eaa/Z659ZGw5u5KLInMdTd0JDXv+rksSBc854ezyn9XCC9T0u0I7Uat4Gow70LlJ1bwSeNwMb37vWViu9O0NvcdlYWCu16lrPhOd8YrtQwI+sc/XgUrK0zN2TFOZ1duU/ld7dJNaBbCzbyyWHDNQc1WM4CdGitQArmrWKdYr3DE8IdibZ1XMm3Je/10FrAXiW8hOdZqaALkcOTykdWuDBuEat8MgRHqx2zYH0ICTpFbo8aYMHXAGtGGyvv8U/oyI3CW7Y5fJMm1cMqJBb0qK1YJl9sS61BIJUNP3JpVhrCXvtwetvv7MVodV5SpHito19Xv/rk1DV5YQ2FBhQ9QmwuB1BKYSU2xs2F1nToMtDvHNp4MXLV2TP+B1l1/N4A+yCNQkGoD3aIhiwMrjN4cPM7QJmc9I86DalDGvoM+vRj3sqSrKxBOMd62RroY1i3TKfvJtgY0cERx9LFkzL76q1ADzCrH3Wo41gJTy8w/fjjHWxlDXCi9EOnMpXd41KovbEHA9FuOpA2JQUqjoQO7qC+oClWzzBwxmJUPalB16Mz1drYpHjZdisgicc6o/eeVPVAQzP6/X3Fb8mjmvzXejNsRmmy7dZGsidxfDiYO4sH2KhrQocqCGlBdpXV7VVag/av9eB3rG7g2C4hqvuI+dXmFDnsdyQ3y8gGFC0ZBI0JXFMAu+05D/i6PzuJHcG7QqGVlMSJhuwK45sAoxOe5pbZt1ImbW9Yh2lSgTFOhlgH8ZJaANy6vrDv+7CsdQ9tBaAJ9/ku/Nbv5QhMLY81vu8L7yl9WhVPkZQW6WQbaccLf8MvNjVYGS7FHjfNNUWvq1c0Ka9AXjUnvt7MhC0sDbRrh6e3AKvO+1p2R/f1dx/Hw8OUW5onfZQqPfMR3s4lFa1A8n46Oj+1HhIbP2tlfYczhmoOgDxBYS0u28vI16xs7jknHGGPjtDVQfKh/LYlWtPnLKp+9joWa77YHyhqgOGc8rejmLdLMXU2xr9qv2w26Ra48g9DM+Ve9xVuKLt/By57WWZX0Vks7C+XWux5rqrIPnahglba4FvkbhaC8sPDU+q2kdBPP6936SUOaTMktYBve3Ntt8aHt62F8OT3HHbodjvgmBDYHd4lgEnXPLe4T8JX7oyotbeB5g/oe2w8YqB5q5K4mvn1OYazqAbTEm0IYG/qapASu4uraMaZml1E5LOBb0+lKZp8dJwf9WOwzi/eYOE8vBqStIfRttfSh6r55V+8VrulW8rhvgCdUj3p7aRvWv/n9QcKcxm7UJRH5bOnjuEQV5m5sPEsZlN1qBjGHQOg75VKXMIlCeMLlrJ5vEwmc+K/RYWHGuqZ/jdc01me9pTQUg7L/hNWosNTzE9XpdObe3XYr04t05s3T63pBOra9BakEiLvV7/OJCSVImsbNIuBvu11z0XUHXAn5JVqzrg2Dnbvf5+rz54/QlZnr/bB3tje1vN1C+kzvjaEupcK3U/wWCflzfNO0jmG9pxn1NQTGs2vu6CoSgVYu4AAAD2SURBVJdYH9jKvjZWkP3GF3LWC5vIcVmjGln901pLHZ76ec6KQ6uoaGlvmyIuI7n+c3i188pqMpp2Y4q+Nn4ow2QChbx6wbuN9pCZNng+3W9u/4jj83ZEq0LOoeKxIdprMON6V4adMgeD51UAIy+mm9dO/PTt/nWz2g9LWd9cRC/E6hp8DD8T68Hz6pdyXjxv3l8v92PVPse/7u8vl4sKY1VpK9vtfl8sza4wXUog/utaS0uCW7WnDcmtSNaqKnm1k01cd4D9LfDq7DV8/h+GV/MEqky5pKaUAc9uO6+ZXi35PUlqnI448BJcCioOPso76Dyx4P0ft4oeOxB9w6MAAAAASUVORK5CYII=" vertex="1" parent="1">
          <mxGeometry x="70" y="217.14999999999998" width="65.38" height="66.85" as="geometry" />
        </mxCell>
        <mxCell id="0NdcQGRxZHLI2dxN-vid-7" value="Internet" style="text;strokeColor=none;fillColor=none;html=1;fontSize=24;fontStyle=1;verticalAlign=middle;align=center;" vertex="1" parent="1">
          <mxGeometry x="52.69" y="300" width="100" height="40" as="geometry" />
        </mxCell>
        <mxCell id="0NdcQGRxZHLI2dxN-vid-8" value="App Service" style="text;strokeColor=none;fillColor=none;html=1;fontSize=24;fontStyle=1;verticalAlign=middle;align=center;" vertex="1" parent="1">
          <mxGeometry x="330" y="290" width="100" height="40" as="geometry" />
        </mxCell>
        <mxCell id="0NdcQGRxZHLI2dxN-vid-9" value="Resource&lt;br&gt;group" style="text;strokeColor=none;fillColor=none;html=1;fontSize=24;fontStyle=1;verticalAlign=middle;align=center;" vertex="1" parent="1">
          <mxGeometry x="330" y="422" width="100" height="40" as="geometry" />
        </mxCell>
        <mxCell id="0NdcQGRxZHLI2dxN-vid-10" value="" style="endArrow=classic;html=1;rounded=0;" edge="1" parent="1">
          <mxGeometry width="50" height="50" relative="1" as="geometry">
            <mxPoint x="150" y="250" as="sourcePoint" />
            <mxPoint x="350" y="250" as="targetPoint" />
          </mxGeometry>
        </mxCell>
      </root>
    </mxGraphModel>
  </diagram>
</mxfile>
